<svg xmlns="http://www.w3.org/2000/svg" viewBox="0 0 24 24" aria-label="Navigate to Instagram" style="height:18px;width:18px" display="block" fill="currentColor"><path d="M23.09.91C22.48.3 21.76 0 20.92 0H3.08C2.23 0 1.51.3.91.91S0 2.24 0 3.08v17.84c0 .85.3 1.57.91 2.17s1.33.91 2.17.91h17.84c.85 0 1.57-.3 2.17-.91s.91-1.33.91-2.17V3.08c0-.85-.3-1.57-.91-2.17zM8.61 8.65c.94-.91 2.08-1.37 3.4-1.37 1.33 0 2.47.46 3.41 1.37s1.41 2.01 1.41 3.3-.47 2.39-1.41 3.3-2.08 1.37-3.41 1.37c-1.32 0-2.46-.46-3.4-1.37s-1.41-2.01-1.41-3.3.47-2.39 1.41-3.3zm12.66 11.63c0 .27-.09.5-.28.68a.92.92 0 01-.67.28H3.62a.93.93 0 01-.68-.28.92.92 0 01-.27-.68V10.15h2.2a6.74 6.74 0 00-.31 2.05c0 2 .73 3.71 2.19 5.12s3.21 2.12 5.27 2.12a7.5 7.5 0 003.75-.97 7.29 7.29 0 002.72-2.63 6.93 6.93 0 001-3.63c0-.71-.11-1.39-.31-2.05h2.11v10.12zm0-13.95c0 .3-.11.56-.31.77a1.05 1.05 0 01-.77.31h-2.72c-.3 0-.56-.11-.77-.31a1.05 1.05 0 01-.31-.77V3.75c0-.29.11-.54.31-.76s.47-.32.77-.32h2.72c.3 0 .56.11.77.32s.31.47.31.76z" fill-rule="evenodd"/></svg>